<?xml version="1.0" encoding="utf-8"?>
<!-- Generator: Adobe Illustrator 19.0.0, SVG Export Plug-In . SVG Version: 6.00 Build 0)  -->
<svg version="1.1" id="图层_1" xmlns="http://www.w3.org/2000/svg" xmlns:xlink="http://www.w3.org/1999/xlink" x="0px" y="0px"
	 viewBox="0 0 162 162" style="enable-background:new 0 0 162 162;" xml:space="preserve">
<style type="text/css">
	.st0{fill:#F7F8F8;}
</style>
<g id="XMLID_1_">
	<path id="XMLID_3_" class="st0" d="M140.7,63.6c-4.6-7.9-10.8-14.7-18.2-19.8c-3.5-2.4-7.2-4.5-11.2-6.2
		c-7.5-3.2-15.7-4.9-24.3-4.9c-8.6,0-16.8,1.8-24.3,4.9c2.3,11.3,12.3,19.8,24.3,19.8c7.6,0,14.7,2.3,20.5,6.2
		c7,4.6,12.4,11.6,14.9,19.8c1.1,3.5,1.7,7.3,1.7,11.2c0,20.5-16.6,37.2-37.2,37.2c-20.5,0-37.2-16.6-37.2-37.2
		c0-3.3,0.4-6.6,1.3-9.6c0,0,1-2.9,1.2-3.6v0c1.6-5.5,2.5-11.3,2.5-17.3c0-7-1.2-13.8-3.3-20.1c-4.3-12.6-12.5-23.3-23.2-30.8
		C23.5,9.9,18.4,7.3,13,5.4c9.4,17.5,14.8,37.5,14.8,58.7c0,5.7-0.4,11.3-1.1,16.8c-0.5,2.3-0.9,4.7-1.2,7.1
		c-0.2,2.2-0.4,4.4-0.4,6.6c0,7,1.2,13.8,3.3,20.1c8.4,24.3,31.5,41.8,58.6,41.8c34.2,0,62-27.8,62-62C149,83.3,146,72.7,140.7,63.6
		z"/>
</g>
</svg>
