<?xml version="1.0" encoding="utf-8"?>
<!-- Generator: Adobe Illustrator 19.0.0, SVG Export Plug-In . SVG Version: 6.00 Build 0)  -->
<svg version="1.1" id="图层_1" xmlns="http://www.w3.org/2000/svg" xmlns:xlink="http://www.w3.org/1999/xlink" x="0px" y="0px"
	 viewBox="0 0 568 130.3" style="enable-background:new 0 0 568 130.3;" xml:space="preserve">
<style type="text/css">
	.st0{opacity:0.8;}
	.st1{fill:#FAFAFA;}
</style>
<g id="XMLID_1_" class="st0">
	<path id="XMLID_20_" class="st1" d="M170.4,24.7c-11.2,0-21.6,3.7-30,10c-12.2,9.1-20,23.6-20,40c0,16.4,7.8,30.9,20,40
		c8.4,6.3,18.8,10,30,10c27.6,0,50-22.4,50-50C220.4,47.1,198.1,24.7,170.4,24.7z M170.4,104.7c-16.6,0-30-13.4-30-30s13.4-30,30-30
		s30,13.4,30,30S187,104.7,170.4,104.7z"/>
	<path id="XMLID_23_" class="st1" d="M286.5,24.7c-11.2,0-21.6,3.7-30,10c-12.2,9.1-20,23.6-20,40c0,16.4,7.8,30.9,20,40
		c8.4,6.3,18.8,10,30,10c27.6,0,50-22.4,50-50C336.5,47.1,314.1,24.7,286.5,24.7z M286.5,104.7c-16.6,0-30-13.4-30-30s13.4-30,30-30
		s30,13.4,30,30S303.1,104.7,286.5,104.7z"/>
	<path id="XMLID_27_" class="st1" d="M402.5,24.7c-11.2,0-21.6,3.7-30,10c-12.2,9.1-20,23.6-20,40v40c0,5.5,4.5,10,10,10
		s10-4.5,10-10v-40c0-16.6,13.4-30,30-30s30,13.4,30,30v40c0,5.5,4.5,10,10,10s10-4.5,10-10v-40C452.5,47.1,430.2,24.7,402.5,24.7z"
		/>
	<path id="XMLID_30_" class="st1" d="M568,63.8c-0.7-3.2-1.8-6.4-3.2-9.5c-1.4-3.1-3.1-6-5-8.7c-6.2-8.7-15-15-24.8-18.3
		c-11.5-3.8-24.3-3.6-36.2,1.8c-10.3,4.6-18.2,12.2-23.3,21.4c-7.4,13.3-8.6,29.7-2,44.7c6.7,14.9,19.8,25,34.6,28.4
		c10.2,2.3,21.2,1.5,31.5-3.1c11.9-5.3,20.7-14.7,25.5-25.8l-21.6-2.2c-3,4.1-7.1,7.6-12.1,9.8c-11.9,5.3-25.5,2.2-34-6.7l51.7-23.1
		L568,63.8z M489.3,77.1c-1-12.3,5.8-24.5,17.7-29.8c5-2.2,10.3-3,15.3-2.4c7,0.7,13.7,4,18.7,9.2L489.3,77.1z"/>
	<path id="XMLID_2_" class="st1" d="M102.1,50.1c-3.6-6.3-8.6-11.7-14.5-15.8c-2.8-2-5.8-3.6-8.9-5c-6-2.5-12.5-4-19.4-4
		c-6.9,0-13.5,1.4-19.4,4c1.8,9.1,9.8,15.9,19.4,15.9c6.1,0,11.7,1.8,16.4,5c5.6,3.7,9.9,9.3,11.9,15.8c0.9,2.8,1.4,5.8,1.4,8.9
		c0,16.4-13.3,29.7-29.7,29.7c-16.4,0-29.7-13.3-29.7-29.7c0-2.7,0.3-5.2,1-7.7c0,0,0.8-2.3,0.9-2.9v0c1.3-4.4,2-9,2-13.9
		c0-5.6-0.9-11-2.7-16.1c-3.4-10-10-18.6-18.6-24.6C8.5,7.2,4.4,5.1,0,3.6c7.5,14,11.8,30,11.8,46.9c0,4.5-0.3,9-0.9,13.4
		c-0.4,1.9-0.7,3.7-0.9,5.7c-0.2,1.7-0.3,3.5-0.3,5.3c0,5.6,0.9,11,2.7,16.1c6.7,19.5,25.1,33.4,46.8,33.4
		c27.4,0,49.5-22.2,49.5-49.5C108.8,65.9,106.3,57.4,102.1,50.1z"/>
</g>
</svg>
