<?xml version="1.0" encoding="utf-8"?>
<!-- Boone Inc <developer@boone.red> -->
<svg version="1.1" id="图层_1" xmlns="http://www.w3.org/2000/svg" xmlns:xlink="http://www.w3.org/1999/xlink" x="0px" y="0px"
	 viewBox="84 -68 367 336" style="enable-background:new 84 -68 367 336;" xml:space="preserve">
<style type="text/css">
	.st0{fill:none;stroke:#FFFFFF;stroke-width:8;stroke-miterlimit:10;}
</style>
<g>
	<path class="st0" d="M211.1-7c-24.5,0-44.3,19.9-44.4,44.3c0,24.6,19.9,44.4,44.4,44.4c24.5,0,44.3-19.9,44.3-44.4
		C255.4,12.9,235.6-7,211.1-7z"/>
	<path class="st0" d="M323.9-7.7c-24.5,0-44.4,19.9-44.4,44.4s19.9,44.3,44.4,44.3c24.5,0,44.3-19.9,44.3-44.3
		C368.3,12.2,348.4-7.7,323.9-7.7z"/>
	<path class="st0" d="M442,53.7c-5.4-3.3-7.4-2.3-15.2,4.2l0,0V-60.7H109.6V58.2c0,0-0.1-0.1-0.1-0.1c-8.9-7.5-10.9-8.8-16.6-5.3
		c-5.8,3.6-0.8,23.4,16.7,44.7c5,6.1,11.1,12.3,18.3,18.2c7.8,6.5,16.9,12.5,27.4,17.8c0,0-16.5,62.9,4.8,96.1
		c22,34.2,93.8,50.7,94.4-12.5c0.2-18.8,1.7-64.9,1.7-64.9s10.6,4.5,24.2,5.2c0,0,0,0,0,0c0,1,0,2,0,3.1c0,6.5-0.1,12.9-0.1,19.4
		c0,12.6,0,25.2,0.1,38c0.7,63.3,72.5,46.7,94.4,12.5c21.3-33.1,5.4-96.7,5.4-96.7c11.3-5.8,20.8-12.3,29-19.3
		c6.8-5.8,12.6-11.9,17.4-17.8C443.2,76.2,447.7,57.2,442,53.7z M398,80.7c-29.2,21.2-75,21.5-89.8,21c-4-0.1-7.8-0.9-11.7-0.9
		c-14.1,0.1-15.9,10.2-15.9,23c0,1.3,0,2.8,0,4.1c0,0,0,0.1,0,0.1c-0.2,0-0.3-0.1-0.5-0.2c-8.1-3.8-14.3-8.1-18.7-11.9
		c-8.9-7.6-12.8-17.2-25.7-15.6c-3.9,0.5-7,1-11,1.1c-16.5,0.3-59.8-1.2-88-21.7c-3.2-2.4-6.1-4.6-8.9-6.7V-43.7h281.4V72.2
		C406,74.8,402.3,77.6,398,80.7z"/>
</g>
<path class="st0" d="M325.8,114.5c-3.9,5.1-25.2,22.3-45.2,13.7c0,0,0,0,0,0c0,5.8-0.1,11.7-0.1,17.4c0,3.9-0.1,7.9-0.1,11.8
	c0,0,0.1,0,0.1,0c5.6,0.4,11.7-0.1,17.9-1.7c16.4-4.3,30.5-13,37.7-25.1c2.1-3.7,3.8-7.7,4.5-11.9
	C344.1,100.3,329.8,109.1,325.8,114.5z"/>
</svg>
