<?xml version="1.0" encoding="utf-8"?>
<!-- Boone Inc <developer@boone.red> -->
<svg version="1.1" id="图层_1" xmlns="http://www.w3.org/2000/svg" xmlns:xlink="http://www.w3.org/1999/xlink" x="0px" y="0px"
	 viewBox="84 -68 367 336" style="enable-background:new 84 -68 367 336;" xml:space="preserve">
<style type="text/css">
	.st0{fill:#24CE7B;}
	.st1{fill:#00CC61;}
	.st2{fill:#00C15C;}
</style>
<g>
	<path class="st0" d="M428.9-62.9V96.5c-4.9,6-10.7,12.2-17.7,18.1V-45.7H126v161.4c-7.3-6-13.5-12.3-18.6-18.5V-62.9H428.9z"/>
	<g>
		<path class="st1" d="M210.3-8.5c24.8,0,44.9,20.1,44.9,44.9s-20.1,45-44.9,45s-45-20.1-45-45C165.4,11.6,185.5-8.5,210.3-8.5
			L210.3-8.5z"/>
		<path class="st1" d="M324.7-9.2c24.8,0,44.9,20.1,44.9,45c0,24.8-20.1,44.9-44.9,44.9s-45-20.1-45-44.9S299.9-9.2,324.7-9.2
			L324.7-9.2z"/>
		<path class="st0" d="M428.9,96.5c-4.9,6-10.7,12.2-17.7,18.1c-8.3,7-18,13.7-29.4,19.5c0,0,16.1,64.4-5.5,98
			c-22.3,34.7-95,51.5-95.7-12.7c-0.1-12.9-0.1-25.7-0.1-38.5c0-6.5,0.1-13.1,0.1-19.6c0-1.1,0-2.1,0-3.1c0-4,0.1-8,0.1-12
			c0-5.9,0.1-11.9,0.1-17.8c0-1.4,0-2.8,0-4.2c0-13,1.9-23.2,16.1-23.3c3.9,0,7.8,0.8,11.8,0.9c15,0.5,61.4,0.2,91-21.3
			c4.3-3.1,8.1-6,11.4-8.6c8.2-6.4,13.7-11.2,17.7-14.5c7.9-6.6,10-7.6,15.4-4.3C450.1,56.5,445.6,75.8,428.9,96.5z"/>
		<path class="st2" d="M280.5,180.9c0.1-11.6,0.2-23.2,0.2-34.8c30.9-3.4,57.9-25.3,57.9-25.3C336.3,159.6,295.1,176.2,280.5,180.9
			L280.5,180.9z"/>
		<path class="st0" d="M341.7,118.8c-0.8,4.3-2.4,8.4-4.6,12.1c-7.3,12.2-21.6,21-38.2,25.4c-6.3,1.7-12.5,2.1-18.2,1.8l0,0
			c-13.9-0.7-24.6-5.3-24.6-5.3s-1.6,46.8-1.8,65.8c-0.7,64.1-73.4,47.4-95.7,12.7c-21.6-33.6-4.9-97.4-4.9-97.4
			c-10.6-5.4-19.8-11.5-27.7-18.1c-7.3-6-13.5-12.3-18.6-18.5C89.8,75.9,84.7,55.7,90.6,52.1c5.8-3.5,7.8-2.2,16.8,5.4
			c4.3,3.6,10.1,8.6,18.6,15.1c2.8,2.1,5.8,4.4,9.1,6.8c28.5,20.8,72.5,22.3,89.2,22c4-0.1,7.2-0.6,11.1-1.1
			c13.1-1.6,17.1,8.1,26.1,15.8c4.5,3.8,10.7,8.2,18.9,12c0.2,0.1,0.3,0.2,0.5,0.2c20.2,8.7,41.9-8.7,45.8-13.9
			C330.7,109.1,345.2,100.2,341.7,118.8z"/>
	</g>
</g>
</svg>
