<?xml version="1.0" encoding="utf-8"?>
<!-- Boone Inc <developer@boone.red> -->
<svg version="1.1" id="boone-textname" xmlns="http://www.w3.org/2000/svg" xmlns:xlink="http://www.w3.org/1999/xlink" x="0px" y="0px"
	 viewBox="-506.1 -183 502.1 409.5" style="enable-background:new -506.1 -183 502.1 409.5;" xml:space="preserve">
<style type="text/css">
	.st0{fill:none;stroke:#FFFFFF;stroke-width:2;stroke-miterlimit:10;}
	.st1{fill:none;stroke:#FFFFFF;stroke-miterlimit:10;}
</style>
<g>
	<g>
		<path class="st0" d="M-330.9-125c-24.5,0-44.3,19.9-44.4,44.3c0,24.6,19.9,44.4,44.4,44.4s44.3-19.9,44.3-44.4
			C-286.6-105.1-306.4-125-330.9-125z"/>
		<path class="st0" d="M-218.1-125.7c-24.5,0-44.4,19.9-44.4,44.4S-242.6-37-218.1-37s44.3-19.9,44.3-44.3
			C-173.7-105.8-193.6-125.7-218.1-125.7z"/>
		<path class="st0" d="M-100-64.3c-5.4-3.3-7.4-2.3-15.2,4.2l0,0v-118.6h-317.2v118.9l-0.1-0.1c-8.9-7.5-10.9-8.8-16.6-5.3
			c-5.8,3.6-0.8,23.4,16.7,44.7c5,6.1,11.1,12.3,18.3,18.2c7.8,6.5,16.9,12.5,27.4,17.8c0,0-16.5,62.9,4.8,96.1
			c22,34.2,93.8,50.7,94.4-12.5c0.2-18.8,1.7-64.9,1.7-64.9s10.6,4.5,24.2,5.2l0,0c0,1,0,2,0,3.1c0,6.5-0.1,12.9-0.1,19.4
			c0,12.6,0,25.2,0.1,38c0.7,63.3,72.5,46.7,94.4,12.5c21.3-33.1,5.4-96.7,5.4-96.7c11.3-5.8,20.8-12.3,29-19.3
			c6.8-5.8,12.6-11.9,17.4-17.8C-98.8-41.8-94.3-60.8-100-64.3z M-144-37.3c-29.2,21.2-75,21.5-89.8,21c-4-0.1-7.8-0.9-11.7-0.9
			c-14.1,0.1-15.9,10.2-15.9,23c0,1.3,0,2.8,0,4.1V10c-0.2,0-0.3-0.1-0.5-0.2C-270,6-276.2,1.7-280.6-2.1
			c-8.9-7.6-12.8-17.2-25.7-15.6c-3.9,0.5-7,1-11,1.1c-16.5,0.3-59.8-1.2-88-21.7c-3.2-2.4-6.1-4.6-8.9-6.7v-116.7h281.4v115.9
			C-136-43.2-139.7-40.4-144-37.3z"/>
	</g>
	<path class="st0" d="M-216.2-3.5c-3.9,5.1-25.2,22.3-45.2,13.7l0,0c0,5.8-0.1,11.7-0.1,17.4c0,3.9-0.1,7.9-0.1,11.8h0.1
		c5.6,0.4,11.7-0.1,17.9-1.7c16.4-4.3,30.5-13,37.7-25.1c2.1-3.7,3.8-7.7,4.5-11.9C-197.9-17.7-212.2-8.9-216.2-3.5z"/>
</g>
<g>
	<g>
		<path class="st1" d="M-153.3,224.8l-0.8-3.6c1.4,0.1,2.7,0.2,4,0.2c1.4,0,2.1-0.7,2.1-2.2v-12.7c-2.1,0.9-4.3,1.7-6.4,2.4
			l-0.9-3.7c2.5-0.7,5-1.5,7.4-2.5v-11.9h-6.3v-3.6h6.3v-9.5h3.7v9.5h5.9v3.6h-5.9V201c1.9-0.9,3.8-2,5.7-3.1v3.8
			c-1.9,1-3.7,2.1-5.7,3v15.3c0,3.1-1.6,4.7-4.6,4.7H-153.3z M-111.8,199.9v3.5c-1.6,4.9-4.3,9.1-8,12.6c3.5,2.4,7.7,4.5,12.8,6.2
			l-2,3.2c-5.4-2.1-9.8-4.5-13.4-7.2c-4.1,3-9,5.5-14.9,7.3l-2-3.2c5.5-1.7,10.1-3.9,13.9-6.6c-4-3.6-6.7-7.7-8.1-12.2h-3.1v-3.6
			H-111.8z M-115.2,179.7v11.2c0,1.2,0.7,1.9,2.2,1.9h4.4v3.5h-5.3c-3.3,0-4.9-1.6-4.9-4.6v-8.5h-10.1v3c0,4.9-2.4,8.7-7.2,11.4
			l-2.5-2.9c4-1.9,6-4.6,6-8.2v-6.9H-115.2z M-122.8,213.7c3.3-2.9,5.7-6.3,7.3-10.1h-14.6C-128.7,207.3-126.3,210.7-122.8,213.7z"
			/>
		<path class="st1" d="M-92,193.6v21.7c1.5-1.4,3-2.9,4.5-4.5l0.9,4c-2.7,2.9-5.6,5.4-8.7,7.7l-1.5-3.4c0.7-0.7,1.1-1.5,1.1-2.3
			v-19.6h-7.4v-3.6H-92z M-88.2,186l-2.5,2.6c-2.1-2.4-4.8-5-8.3-7.7l2.5-2.4C-93.2,180.9-90.5,183.5-88.2,186z M-68.8,205.3v-8.9
			h-10.5v5.6c-0.3,9.6-2.2,17.3-5.9,23l-2.7-2.8c3.1-4.9,4.8-11.6,5-20.3v-20.1c8.7-0.2,16.6-1.4,23.6-3.7l1.9,3.4
			c-6.6,1.9-13.9,3.1-22,3.4v7.9h23v3.5h-8.8v10.8c3.3,1.8,6.6,3.8,9.6,6l-2,3c-2.5-1.9-5.1-3.5-7.6-5v14.2h-3.7v-16.3
			c-2.8-1.6-5.7-2.9-8.5-4l1.9-2.9C-73.2,203.2-71,204.2-68.8,205.3z"/>
		<path class="st1" d="M-16.4,225l-1-3.6l5,0.2c1.5,0,2.2-0.7,2.2-2.1v-36h-34.1v41.9H-48v-45.4h41.5v40.5c0,3.2-1.6,4.8-4.6,4.8
			H-16.4z M-33.7,206c-1.9,5.1-4.2,9.5-6.8,13.1l-2.4-2.9c2.7-3.8,4.9-8.4,6.7-13.7c-2.5-3.3-4.9-6.3-7.3-9.1l2.3-2.2
			c1.9,2,4,4.5,6.2,7.4c1-3.6,1.8-7.6,2.4-11.8l3.4,0.6c-0.8,5.4-1.9,10.2-3.3,14.7c2,2.7,4.1,5.7,6.1,8.9l-2.5,2.5
			C-30.5,210.9-32.1,208.4-33.7,206z M-18.8,207.3c-2.1,5.1-4.5,9.5-7.3,13.1l-2.4-2.9c2.9-4,5.4-8.6,7.3-13.9
			c-2.4-3.5-4.7-6.8-7.1-9.7l2.3-2.2c1.9,2.1,4,4.7,6.1,7.9c1.1-3.9,2-8.1,2.8-12.6l3.5,0.6c-0.9,5.8-2.2,11-3.7,15.7
			c2,3,4.1,6.4,6.3,10.1l-2.5,2.5C-15.3,212.8-17.1,210-18.8,207.3z"/>
	</g>
	<g>
		<path class="st1" d="M-501,184v-3.7h41.1v3.7h-17.6v15.1h15v3.6h-15v16.6h19.8v3.6h-46.3v-3.6h8.2v-25h3.6v25h10.9V184H-501z"/>
		<path class="st1" d="M-411.2,180.9c-2.3,12.2-7.1,22-14.4,29.5c5.8,4.8,12.6,8.5,20.4,11.2l-2.3,3.5c-8-3-14.9-7-20.9-12
			c-5.9,5.3-13.1,9.3-21.6,12.1l-2.1-3.4c8.2-2.7,15.1-6.4,20.7-11.3c-6.8-6.5-12.1-14.4-16-23.8l3.4-1.9c3.6,9.2,8.7,16.9,15.3,23
			c7-7.2,11.5-16.5,13.7-27.8L-411.2,180.9z M-424.4,190l-3.4,1.7c-2.7-4.7-5.6-8.8-8.8-12.5l3.5-1.6
			C-429.7,181.4-426.9,185.5-424.4,190z"/>
		<path class="st1" d="M-382.4,179.5c-3.8,10.9-8.9,19.2-15.2,25l-2.9-2.5c6.5-5.9,11.4-13.8,14.7-23.8L-382.4,179.5z M-357.7,223.8
			l-3.5,1.6c-0.8-1.8-1.6-3.4-2.3-5c-9.2,1.5-19.4,2.5-30.7,3.2l-0.7-3.6c4.2-2.2,9.4-10.4,15.7-24.6l3.6,1.2
			c-4.5,9.9-8.9,17.6-13.4,23.2c8.5-0.5,16.4-1.4,23.9-2.6c-2-3.7-4.1-7.2-6.3-10.3l3.4-1.1C-364,211.3-360.6,217.4-357.7,223.8z
			 M-353.2,201.5l-2.7,3.1c-7.7-6.4-13.2-14.8-16.2-25l3.2-1.8C-365.8,187.5-360.6,195.4-353.2,201.5z"/>
		<path class="st1" d="M-329.9,194.8c-4.5,4.3-10.1,7.9-16.9,10.7l-1.6-3.5c6.6-2.5,11.9-5.8,16.1-9.9L-329.9,194.8z M-308.3,220
			h6.4v3.6h-46V220h6.8v-16.7h32.8V220z M-333.6,186.8c-1.7-2.3-3.8-4.7-6.4-7.4l3.1-1.9c2.9,2.9,5,5.4,6.6,7.5l-2.4,1.8h13.3
			c2.1-2.9,4-6,5.5-9.3l3.6,1.2c-1.5,3-3.2,5.7-5,8.1h12.5v3.6h-43.8v-3.6H-333.6z M-331.4,220v-13.2h-6.1V220H-331.4z M-321.6,220
			v-13.2h-6.3V220H-321.6z M-301.5,202.2l-2.1,3.3c-5.2-4.3-10.6-7.7-16-10.2l1.9-2.9C-311.7,195.1-306.3,198.3-301.5,202.2z
			 M-312,220v-13.2h-6.2V220H-312z"/>
		<path class="st1" d="M-251.9,180v3.6h-19.3v19.7h21.3v3.6h-21.3v18.4h-3.8v-18.4h-20.9v-3.6h20.9v-19.7h-18.8V180H-251.9z
			 M-281.9,198.9l-3.5,1.7c-1.8-4.5-3.6-8.4-5.6-11.9l3.5-1.7C-285.5,190.6-283.7,194.5-281.9,198.9z M-254.6,188.3
			c-1.6,4.1-3.6,8.1-6.2,12.1l-3.3-1.7c2.5-4.1,4.6-8,6.1-12L-254.6,188.3z"/>
		<path class="st1" d="M-242.7,194.8c4.6-1.6,10.2-7.3,17-17.3l3.8,1.3c-4.7,6.7-9.4,12-14.1,15.8c10-0.4,19.4-1.1,28.4-1.9
			c-2-2.8-4-5.5-6.1-7.9l3.4-1.6c4.5,5.2,8.6,11,12.5,17.3l-3.6,1.8c-1.3-2.2-2.6-4.2-3.8-6.2c-11,1-23.2,1.7-36.7,2.2L-242.7,194.8
			z M-203.5,225.4h-3.8v-2.6h-27.1v2.6h-3.8v-21.7h34.7V225.4z M-207.3,219.2v-11.9h-27.1v11.9H-207.3z"/>
	</g>
	<circle class="st1" cx="-177" cy="204.8" r="10"/>
</g>
</svg>
