<?xml version="1.0" encoding="utf-8"?>
<!-- Boone Inc <developer@boone.red> -->
<svg version="1.1" id="图层_1" xmlns="http://www.w3.org/2000/svg" xmlns:xlink="http://www.w3.org/1999/xlink" x="0px" y="0px"
	 viewBox="84 -68 367 336" style="enable-background:new 84 -68 367 336;" xml:space="preserve">
<style type="text/css">
	.st0{fill:#FFFFFF;}
	.st1{fill:#FCFCFC;}
	.st2{fill:#E5E5E5;}
</style>
<g>
	<path class="st0" d="M724-365.2V90.1c-14,17-30.7,34.9-50.5,51.6v-457.8h-814.7v461.2c-20.9-17-38.5-35.2-53-52.7v-457.6H724z"/>
	<g>
		<path class="st1" d="M99.6-209.8c70.9,0,128.3,57.5,128.3,128.3S170.5,47.2,99.6,47.2S-29-10.3-29-81.4
			C-28.7-152.3,28.7-209.8,99.6-209.8L99.6-209.8z"/>
		<path class="st1" d="M426.3-211.7c70.9,0,128.3,57.5,128.3,128.6c0,70.9-57.5,128.3-128.3,128.3S297.7-12.3,297.7-83.1
			S355.4-211.7,426.3-211.7L426.3-211.7z"/>
		<path class="st1" d="M724,90.1c-14,17-30.7,34.9-50.5,51.6c-23.7,20.1-51.3,39.1-84,55.8c0,0,46,183.9-15.6,279.8
			c-63.6,99-271.5,147-273.4-36.3c-0.3-36.8-0.3-73.4-0.3-109.9c0-18.7,0.3-37.4,0.3-56.1c0-3.1,0-6.1,0-8.9
			c0-11.4,0.3-22.9,0.3-34.3c0-16.7,0.3-34,0.3-50.8c0-3.9,0-8.1,0-12c0-37.1,5.3-66.4,46-66.7c11.2,0,22.3,2.2,33.8,2.5
			c43,1.4,175.5,0.6,260-60.8c12.3-8.9,23.2-17,32.6-24.6c23.4-18.4,39.1-32.1,50.5-41.3c22.6-19,28.5-21.8,44.1-12.3
			C784.5-24,771.7,31,724,90.1z"/>
		<path class="st2" d="M299.9,331.5c0.3-33.2,0.6-66.4,0.6-99.3c88.2-9.8,165.4-72.3,165.4-72.3
			C459.5,270.7,341.8,317.8,299.9,331.5L299.9,331.5z"/>
		<path class="st1" d="M474.9,154c-2.2,12.3-7,24-13.1,34.6c-20.9,34.9-61.7,60-109.1,72.5c-18.1,4.7-35.7,6.1-51.9,5l0,0
			c-39.6-2-70.3-15.1-70.3-15.1s-4.5,133.6-5,188c-2,183-209.8,135.3-273.4,36.3c-61.7-96-14-278.2-14-278.2
			c-30.4-15.3-56.6-32.9-79.2-51.6c-20.9-17-38.5-35.2-53-52.7c-50.5-61.7-65-119.1-48.3-129.5c16.5-10,22.3-6.4,48,15.3
			c12.3,10.3,28.7,24.6,53,43.2c8.1,6.1,16.5,12.6,25.9,19.5c81.5,59.4,207,63.6,254.7,62.8c11.4-0.3,20.6-1.7,31.8-3.1
			c37.4-4.5,48.8,23.2,74.5,45.2c12.8,10.9,30.7,23.4,54.1,34.3c0.6,0.3,0.8,0.6,1.4,0.6c57.8,24.8,119.7-24.8,130.9-39.6
			C443.6,126.1,484.9,100.7,474.9,154z"/>
	</g>
</g>
</svg>
