<?xml version="1.0" encoding="utf-8"?>
<!-- Generator: Adobe Illustrator 19.0.0, SVG Export Plug-In . SVG Version: 6.00 Build 0)  -->
<svg version="1.1" id="图层_1" xmlns="http://www.w3.org/2000/svg" xmlns:xlink="http://www.w3.org/1999/xlink" x="0px" y="0px"
	 viewBox="409 -118 918 336" style="enable-background:new 409 -118 918 336;" xml:space="preserve">
<style type="text/css">
	.st0{enable-background:new    ;}
	.st1{fill:#24CE7B;}
	.st2{fill:#0CAD55;}
</style>
<g class="st0">
	<path class="st1" d="M806,93.5l-2.8-11.7c4.8,0.3,9.5,0.7,14,0.7c5,0,7.5-2.3,7.5-7V34.9c-7.3,2.8-15.1,5.5-22.8,7.8l-3.3-12
		c8.8-2.2,17.6-4.8,26.1-8v-38h-22.4v-11.4h22.4v-30.5h13.2v30.5h20.9v11.5h-20.9v32.6c6.8-3,13.4-6.3,20-10v12.3
		c-6.6,3.3-13.2,6.7-20,9.7v49.1c0,10-5.5,15-16.2,15H806z M952.7,13.9v11.2c-5.7,15.7-15.1,29.1-28.3,40.3
		c12.3,7.7,27.4,14.3,45.2,20l-7.2,10.3c-18.9-6.7-34.7-14.3-47.4-23c-14.3,9.7-31.9,17.5-52.7,23.3l-7.2-10.2
		c19.5-5.5,35.8-12.5,49.2-21.1c-14.1-11.7-23.7-24.6-28.5-39.1h-11V13.9H952.7z M940.8-50.7v35.8c0,4,2.6,6.2,7.7,6.2h15.4V2.5
		h-18.7c-11.8,0-17.4-5-17.4-14.7v-27.1h-35.6v9.7c0,15.7-8.4,27.8-25.3,36.5l-8.8-9.2c14-6.2,21.1-14.8,21.1-26.1v-22.1h61.6V-50.7
		z M913.8,58c11.6-9.3,20.2-20.1,25.9-32.5h-51.6C892.9,37.5,901.3,48.4,913.8,58z"/>
	<path class="st1" d="M1022.5-6.4v69.6c5.1-4.3,10.5-9.2,16-14.3l3.3,12.7c-9.5,9.2-19.8,17.3-30.8,24.6l-5.1-11
		c2.6-2.2,4-4.7,4-7.5V5.1h-26.3V-6.4H1022.5z M1036.1-30.7l-9,8.3c-7.3-7.8-17.1-16.2-29.4-24.8l9-7.8
		C1018.3-46.9,1028-38.7,1036.1-30.7z M1104.6,31V2.6h-36.9v18c-0.9,30.8-7.9,55.4-20.7,73.8l-9.4-8.8c11-15.7,16.9-37.3,17.8-64.9
		v-64.3c30.8-0.7,58.8-4.5,83.4-11.8l6.6,10.8c-23.1,6.2-49,9.8-77.7,10.8v25.1h81.2V2.6h-31.2v34.6c11.8,5.8,23.1,12.2,33.8,19.1
		l-7,9.7c-9-6-18-11.3-26.8-16v45.6h-13V43.4c-9.9-5-20-9.2-30.1-12.8l6.6-9.2C1089.2,24.4,1096.9,27.7,1104.6,31z"/>
</g>
<g>
	<path class="st1" d="M1285.8,92.2l-3.5-11.7l17.6,0.5c5.1,0,7.7-2.3,7.7-6.8V-41.2h-120.4v134h-13V-52.6h146.5V76.9
		c0,10.2-5.5,15.3-16.3,15.3H1285.8z M1224.6,31.4c-6.6,16.3-14.7,30.3-24.1,42l-8.4-9.3c9.5-12.3,17.4-27,23.7-43.8
		C1207,9.6,1198.4,0,1189.9-8.8l8.3-7.2c6.8,6.5,14.1,14.3,21.8,23.6c3.5-11.7,6.4-24.3,8.6-37.6l12.1,2c-2.9,17.1-6.8,32.8-11.6,47
		c7,8.7,14.3,18.1,21.7,28.5l-8.8,8C1236.2,46.9,1230.3,38.9,1224.6,31.4z M1277.3,35.4c-7.3,16.3-16,30.3-25.9,42l-8.4-9.2
		c10.3-12.7,18.9-27.5,25.7-44.5c-8.4-11.3-16.7-21.6-25.2-31l8.3-7.2c6.6,6.8,14,15.2,21.7,25.1c4-12.5,7.2-26,9.7-40.3l12.5,2
		c-3.3,18.5-7.7,35.1-13.2,50.1c7,9.7,14.5,20.5,22.4,32.5l-9,8C1289.6,53.3,1283.4,44.1,1277.3,35.4z"/>
</g>
<g class="st0">
	<path class="st1" d="M805.2,128.7l9.4,25.6l8.9-25.6h5.6l8.9,25.6l9.4-25.6h6.5l-13,31.6h-5.6l-8.9-25.4l-9,25.4h-5.6l-13-31.6
		H805.2z"/>
	<path class="st1" d="M861.2,128.7l9.4,25.6l8.9-25.6h5.6l8.9,25.6l9.4-25.6h6.5l-13,31.6h-5.6l-8.9-25.4l-9,25.4h-5.6l-13-31.6
		H861.2z"/>
	<path class="st1" d="M917.2,128.7l9.4,25.6l8.9-25.6h5.6l8.9,25.6l9.4-25.6h6.5l-13,31.6h-5.6l-8.9-25.4l-9,25.4h-5.6l-13-31.6
		H917.2z"/>
	<path class="st1" d="M979.2,152.6c0.9,0.8,1.3,1.9,1.3,3.2c0,1.4-0.4,2.4-1.3,3.3c-0.9,0.8-2,1.3-3.2,1.3c-1.3,0-2.3-0.5-3.2-1.3
		c-0.9-0.9-1.3-2-1.3-3.3s0.4-2.4,1.3-3.2c0.9-0.9,1.9-1.3,3.2-1.3S978.3,151.6,979.2,152.6z"/>
	<path class="st1" d="M998.5,116.4c0.9,0.8,1.3,1.8,1.3,3.2c0,1.3-0.4,2.3-1.3,3.3c-0.9,0.8-1.9,1.3-3.2,1.3s-2.3-0.5-3.2-1.3
		c-0.9-0.9-1.3-2-1.3-3.3c0-1.4,0.4-2.4,1.3-3.2c0.9-0.9,1.9-1.3,3.2-1.3S997.6,115.5,998.5,116.4z M998.3,128.7v31.6h-5.9v-31.6
		H998.3z"/>
	<path class="st1" d="M1019.6,128.7h9.5v4.1h-9.5v20.1c0,1.2,0.2,2,0.8,2.5c0.5,0.5,1.5,0.8,2.8,0.8h4.9v4.1h-5.8
		c-3.1,0-5.4-0.7-6.7-2c-1.3-1.2-1.9-3-1.9-5.4v-20.1h-7.7v-4.1h7.7v-8.2l5.9-2V128.7L1019.6,128.7z"/>
	<path class="st1" d="M1066.5,132.8c3.3,3.1,4.9,7,4.9,11.8c0,4.7-1.6,8.6-4.8,11.7c-3.5,3.3-8.1,5-13.8,5c-5.8,0-10.3-1.6-13.7-5
		c-3.3-3.1-4.9-7-4.9-11.7c0-4.8,1.6-8.7,4.9-11.8c3.4-3.3,7.9-4.9,13.7-4.9C1058.5,127.9,1063.1,129.5,1066.5,132.8z M1043.3,135.8
		c-2.1,2.3-3,5.2-3,8.7s1,6.4,3,8.7c2.2,2.6,5.4,3.9,9.5,3.9c4,0,7.2-1.3,9.6-3.9c2-2.3,3-5.3,3-8.7c0-3.5-1-6.4-3-8.7
		c-2.4-2.6-5.6-3.9-9.6-3.9C1048.8,132,1045.6,133.3,1043.3,135.8z"/>
	<path class="st1" d="M1085.1,128.7V148c0,3,0.7,5.3,2.3,6.7c1.6,1.5,4.1,2.3,7.6,2.3c2.5,0,4.8-0.9,6.8-2.4
		c2.1-1.7,3.3-3.9,3.8-6.6v-19.3h5.9v31.6h-5.9v-4.9c-3.1,3.8-7.3,5.7-12.5,5.7c-9.3,0-13.9-4.3-13.9-12.9v-19.6L1085.1,128.7
		L1085.1,128.7z"/>
	<path class="st1" d="M1150,137.7h-5.8c-0.5-2-1.5-3.4-3-4.3c-1.6-1-4-1.5-7-1.5c-2.7,0-4.7,0.4-6.2,1.2c-1.6,0.8-2.4,1.9-2.4,3.3
		c0,1.3,1,2.5,3.3,3.4c1.4,0.5,4.1,1.2,7.9,2.1c4.6,0.9,7.9,1.9,9.9,2.9c3,1.6,4.6,3.7,4.6,6.5c0,6.5-5.4,9.8-16.2,9.8
		c-10.1,0-15.6-3.7-16.5-10.9h5.8c0.4,2.5,1.6,4.3,3.2,5.4c1.6,1,4.1,1.5,7.3,1.5c6.8,0,10.3-1.8,10.3-5.4c0-1.8-1.3-3.1-3.6-4.1
		c-1.3-0.5-4-1.2-8.2-2c-4.5-0.9-7.7-1.8-9.5-2.8c-3-1.5-4.4-3.5-4.4-6.2s1.4-4.8,4.3-6.4c2.7-1.6,6.2-2.4,10.5-2.4
		C1143.7,127.9,1148.9,131.1,1150,137.7z"/>
	<path class="st1" d="M1164,128.7V148c0,3,0.7,5.3,2.3,6.7c1.6,1.5,4.1,2.3,7.6,2.3c2.5,0,4.8-0.9,6.8-2.4c2.1-1.7,3.3-3.9,3.8-6.6
		v-19.3h5.9v31.6h-5.9v-4.9c-3.1,3.8-7.3,5.7-12.5,5.7c-9.3,0-13.9-4.3-13.9-12.9v-19.6L1164,128.7L1164,128.7z"/>
	<path class="st1" d="M1208,152.6c0.9,0.8,1.3,1.9,1.3,3.2c0,1.4-0.4,2.4-1.3,3.3c-0.9,0.8-2,1.3-3.2,1.3c-1.3,0-2.3-0.5-3.2-1.3
		c-0.9-0.9-1.3-2-1.3-3.3s0.4-2.4,1.3-3.2c0.9-0.9,1.9-1.3,3.2-1.3S1207.1,151.6,1208,152.6z"/>
	<path class="st1" d="M1251.4,140.9v19.4h-5.9v-19.1c0-6.2-3.4-9.2-10.1-9.2c-2.7,0-5,0.8-6.9,2.4c-2.1,1.7-3.2,4-3.4,6.8v19.1h-5.9
		v-31.6h5.9v4.6c1.3-1.8,3-3.1,5.1-4c2.1-1,4.4-1.5,6.9-1.5C1246.6,127.9,1251.4,132.2,1251.4,140.9z"/>
	<path class="st1" d="M1290.4,133c2.8,3.1,4.3,7.4,4.4,12.9h-30.2c0.3,3.5,1.4,6.3,3.5,8.3s5,2.9,8.6,2.9c3.1,0,5.7-0.7,7.6-2
		c1.6-1.1,2.9-2.8,3.9-5h5.9c-0.9,3.1-2.6,5.5-5.2,7.5c-3.2,2.3-7.3,3.5-12.2,3.5c-5.5,0-9.9-1.5-13.2-4.5c-3.4-3.1-5-7.1-5-12.2
		c0-4.6,1.6-8.6,4.8-11.7c3.3-3.3,7.6-5,13.2-5C1282.6,127.9,1287.3,129.6,1290.4,133z M1268.3,134.7c-2.1,1.8-3.3,4.3-3.6,7.4h23.9
		c-0.7-6.8-4.8-10.1-12.1-10.1C1273.2,132,1270.4,132.9,1268.3,134.7z"/>
	<path class="st1" d="M1312,128.7h9.5v4.1h-9.5v20.1c0,1.2,0.2,2,0.8,2.5c0.5,0.5,1.5,0.8,2.8,0.8h4.9v4.1h-5.8
		c-3.1,0-5.4-0.7-6.7-2c-1.3-1.2-1.9-3-1.9-5.4v-20.1h-7.7v-4.1h7.7v-8.2l5.9-2L1312,128.7L1312,128.7z"/>
</g>
<g>
	<path class="st1" d="M758.4-112.9V46.5c-4.9,6-10.7,12.2-17.7,18.1V-95.7H455.5V65.7c-7.3-6-13.5-12.3-18.6-18.5v-160.1H758.4z"/>
	<g>
		<path class="st1" d="M539.8-58.5c24.8,0,44.9,20.1,44.9,44.9s-20.1,45-44.9,45s-45-20.1-45-45C494.9-38.4,515-58.5,539.8-58.5
			L539.8-58.5z"/>
		<path class="st1" d="M654.2-59.2c24.8,0,44.9,20.1,44.9,45c0,24.8-20.1,44.9-44.9,44.9s-45-20.1-45-44.9S629.4-59.2,654.2-59.2
			L654.2-59.2z"/>
		<path class="st1" d="M758.4,46.5c-4.9,6-10.7,12.2-17.7,18.1c-8.3,7-18,13.7-29.4,19.5c0,0,16.1,64.4-5.5,98
			c-22.3,34.7-95,51.5-95.7-12.7c-0.1-12.9-0.1-25.7-0.1-38.5c0-6.5,0.1-13.1,0.1-19.6c0-1.1,0-2.1,0-3.1c0-4,0.1-8,0.1-12
			c0-5.9,0.1-11.9,0.1-17.8c0-1.4,0-2.8,0-4.2c0-13,1.9-23.2,16.1-23.3c3.9,0,7.8,0.8,11.8,0.9c15,0.5,61.4,0.2,91-21.3
			c4.3-3.1,8.1-6,11.4-8.6c8.2-6.4,13.7-11.2,17.7-14.5c7.9-6.6,10-7.6,15.4-4.3C779.6,6.5,775.1,25.8,758.4,46.5z"/>
		<path class="st2" d="M610,130.9c0.1-11.6,0.2-23.2,0.2-34.8c30.9-3.4,57.9-25.3,57.9-25.3C665.8,109.6,624.6,126.2,610,130.9
			L610,130.9z"/>
		<path class="st1" d="M671.2,68.8c-0.8,4.3-2.4,8.4-4.6,12.1c-7.3,12.2-21.6,21-38.2,25.4c-6.3,1.7-12.5,2.1-18.2,1.8l0,0
			c-13.9-0.7-24.6-5.3-24.6-5.3s-1.6,46.8-1.8,65.8c-0.7,64.1-73.4,47.4-95.7,12.7c-21.6-33.6-4.9-97.4-4.9-97.4
			c-10.6-5.4-19.8-11.5-27.7-18.1c-7.3-6-13.5-12.3-18.6-18.5c-17.6-21.4-22.7-41.6-16.8-45.2c5.8-3.5,7.8-2.2,16.8,5.4
			c4.3,3.6,10.1,8.6,18.6,15.1c2.8,2.1,5.8,4.4,9.1,6.8c28.5,20.8,72.5,22.3,89.2,22c4-0.1,7.2-0.6,11.1-1.1
			C578,48.7,582,58.4,591,66.1c4.5,3.8,10.7,8.2,18.9,12c0.2,0.1,0.3,0.2,0.5,0.2c20.2,8.7,41.9-8.7,45.8-13.9
			C660.2,59.1,674.7,50.2,671.2,68.8z"/>
	</g>
</g>
</svg>
