<?xml version="1.0" encoding="utf-8"?>
<!-- Generator: Adobe Illustrator 19.0.0, SVG Export Plug-In . SVG Version: 6.00 Build 0)  -->
<svg version="1.1" id="图层_1" xmlns="http://www.w3.org/2000/svg" xmlns:xlink="http://www.w3.org/1999/xlink" x="0px" y="0px"
	 viewBox="0 0 258.2 87" style="enable-background:new 0 0 258.2 87;" xml:space="preserve">
<style type="text/css">
	.st0{fill:#DBD9D9;}
</style>
<g id="XMLID_1_">
	<path id="XMLID_20_" class="st0" d="M97.2,21c-6.4,0-12.3,2.1-17.1,5.7c-6.9,5.2-11.4,13.5-11.4,22.8c0,9.3,4.5,17.6,11.4,22.8
		c4.8,3.6,10.7,5.7,17.1,5.7c15.8,0,28.5-12.8,28.5-28.5C125.8,33.8,113,21,97.2,21z M97.2,66.6c-9.5,0-17.1-7.7-17.1-17.1
		s7.7-17.1,17.1-17.1s17.1,7.7,17.1,17.1S106.7,66.6,97.2,66.6z"/>
	<path id="XMLID_23_" class="st0" d="M163.5,21c-6.4,0-12.3,2.1-17.1,5.7c-6.9,5.2-11.4,13.5-11.4,22.8c0,9.3,4.5,17.6,11.4,22.8
		c4.8,3.6,10.7,5.7,17.1,5.7c15.8,0,28.5-12.8,28.5-28.5C192,33.8,179.2,21,163.5,21z M163.5,66.6c-9.5,0-17.1-7.7-17.1-17.1
		s7.7-17.1,17.1-17.1s17.1,7.7,17.1,17.1S172.9,66.6,163.5,66.6z"/>
	<path id="XMLID_27_" class="st0" d="M229.7,21c-6.4,0-12.3,2.1-17.1,5.7c-6.9,5.2-11.4,13.5-11.4,22.8v22.8c0,3.1,2.6,5.7,5.7,5.7
		s5.7-2.6,5.7-5.7V49.5c0-9.5,7.7-17.1,17.1-17.1s17.1,7.7,17.1,17.1v22.8c0,3.1,2.6,5.7,5.7,5.7c3.1,0,5.7-2.6,5.7-5.7V49.5
		C258.2,33.8,245.4,21,229.7,21z"/>
	<path id="XMLID_3_" class="st0" d="M58.3,35.5c-2.1-3.6-4.9-6.7-8.3-9c-1.6-1.1-3.3-2.1-5.1-2.8c-3.4-1.5-7.1-2.3-11.1-2.3
		c-3.9,0-7.7,0.8-11.1,2.3c1,5.2,5.6,9,11.1,9c3.5,0,6.7,1,9.4,2.8c3.2,2.1,5.6,5.3,6.8,9c0.5,1.6,0.8,3.3,0.8,5.1
		c0,9.4-7.6,17-17,17c-9.4,0-17-7.6-17-17c0-1.5,0.2-3,0.6-4.4c0,0,0.4-1.3,0.5-1.6v0c0.7-2.5,1.1-5.2,1.1-7.9
		c0-3.2-0.5-6.3-1.5-9.2c-2-5.7-5.7-10.6-10.6-14C4.8,11,2.5,9.8,0,9c4.3,8,6.7,17.1,6.7,26.8c0,2.6-0.2,5.1-0.5,7.6
		c-0.2,1.1-0.4,2.1-0.5,3.2c-0.1,1-0.2,2-0.2,3c0,3.2,0.5,6.3,1.5,9.2c3.8,11.1,14.3,19.1,26.7,19.1C49.4,77.9,62,65.2,62,49.6
		C62,44.5,60.7,39.7,58.3,35.5z"/>
</g>
</svg>
