<?xml version="1.0" encoding="utf-8"?>
<!-- Generator: Adobe Illustrator 19.0.0, SVG Export Plug-In . SVG Version: 6.00 Build 0)  -->
<svg version="1.1" id="图层_1" xmlns="http://www.w3.org/2000/svg" xmlns:xlink="http://www.w3.org/1999/xlink" x="0px" y="0px"
	 viewBox="42 -41.5 283.5 91" style="enable-background:new 42 -41.5 283.5 91;" xml:space="preserve">
<style type="text/css">
	.st0{fill:#D8D8D8;}
	.st1{fill:none;stroke:#D8D8D8;stroke-width:2;stroke-miterlimit:10;}
	.st2{opacity:0.7;fill:#D8D8D8;enable-background:new    ;}
	.st3{opacity:0.35;fill:#D8D8D8;enable-background:new    ;}
	.st4{opacity:0.1;fill:#D8D8D8;enable-background:new    ;}
	.st5{font-family:'STHeitiSC-Light';}
	.st6{font-size:54.9871px;}
	.st7{font-family:'ArialMT';}
	.st8{font-size:18.4791px;}
</style>
<g id="XMLID_95_">
	<path id="XMLID_117_" class="st0" d="M87-15.4c6.9-13.4,25.9-23.7,32.6-13.1c8.1,15.9-19.2,14.3-26,24.5c18,10,20.3,30.7-4.1,29.9
		H76.6c-13.2-0.2-18.9-3-19.8-9.5c-0.8-5.7,0.8-12.7,16-20.8c-9.9-18-8.8-33.4,4.3-36.8C86.9-42.8,88.7-37.4,87-15.4L87-15.4z
		 M91.6-2c-2.4-0.7-0.9-3.2,2.2-6.3c10.5-9,29.3-7.5,23.7-19c-7.8-11.2-29.3,7.1-33.2,23.9c-0.4,1.6-2.4,0.8-2.1-0.5
		c1.2-3.5,2-7.1,2.2-11c1-16,2.2-24.6-5-24.1c-11.7,1.1-13.8,14.8-4.8,32.5c1.1,1.9,1.9,3.3,0.8,3.8c-6.3,2.7-10.8,6-13.6,10
		C56,17.8,60.9,24.2,79.1,23.5h9.4C115.3,23.8,103.7,2.1,91.6-2z"/>
	<path id="XMLID_19_" class="st0" d="M68.5,13c2.4-4.1,5.1-4,7.9-0.4l0.7-0.3c-3.1-4.8-6.3-4.8-9.5,0.5L68.5,13z"/>
	<path id="XMLID_18_" class="st0" d="M87.6,13c2.4-4.1,5.1-4,7.9-0.4l0.7-0.3c-3.1-4.8-6.3-4.8-9.5,0.5L87.6,13z"/>
	<path id="XMLID_99_" class="st0" d="M65.9,15.9c1.9,0,3.4,0.7,3.4,1.6s-1.5,1.6-3.4,1.6c-1.9,0-3.4-0.7-3.4-1.6
		C62.6,16.7,64.1,15.9,65.9,15.9L65.9,15.9z M110.8-20.4c3.7-1.2,1.1-5.7-1.6-5.3c-7.6,0.8-13.9,7.7-17.9,16.8
		C96-13.7,101.5-17.6,110.8-20.4L110.8-20.4z M74-22.3c1,7.9,3.4,11.2,5.1,15.5c0.8-8.3,1.3-16.6,0.5-24.7
		C79.2-34.6,72.2-33.8,74-22.3L74-22.3z M98,15.6c1.9,0,3.4,0.7,3.4,1.6s-1.5,1.6-3.4,1.6c-1.9,0-3.4-0.7-3.4-1.6
		C94.7,16.3,96.2,15.6,98,15.6z"/>
	<path id="XMLID_12_" class="st0" d="M82.4,19.5L82.4,19.5c0,1.5,1.8,1.4,2.4-0.1l0.5,0.1c-0.2,1.3-2.2,2.3-3,1.1h-0.5
		c-0.1,0.7-2.6,1.3-3-1.1l0.5-0.1c0.6,1.4,2.3,1.5,2.4,0.1C81.7,19.3,82.4,19.3,82.4,19.5z"/>
</g>
<path id="XMLID_10_" class="st1" d="M89.7,29l-4.5,2.9h-0.6c0-0.3-0.3-0.6-0.6-0.6h-3.9c-0.3,0-0.6,0.3-0.6,0.6h-0.6L74.4,29
	c0,0-1.8-1.2-1.8,0.5c0,0.3,0,0.8,0,1.3c0,2.2,0,5.7,0,5.7c0,0.5,0,1,0,1.3c0,1.7,1.8,0.5,1.8,0.5l4.5-2.9h0.6
	c0,0.3,0.3,0.6,0.6,0.6H84c0.3,0,0.6-0.3,0.6-0.6h0.6l4.5,2.9c0,0,1.8,1.2,1.8-0.5c0-0.3,0-0.8,0-1.3c0,0,0-3.5,0-5.7
	c0-0.5,0-1,0-1.3C91.5,27.8,89.7,29,89.7,29z"/>
<g id="XMLID_14_">
	<path id="XMLID_77_" class="st2" d="M301.4-15.9c0,5.2-4.2,9.3-9.3,9.3c-5.2,0-9.3-4.2-9.3-9.3c0-5.2,4.2-9.3,9.3-9.3
		C297.3-25.3,301.4-21.1,301.4-15.9z M292.1-23.8c-4.3,0-7.8,3.5-7.8,7.8s3.5,7.8,7.8,7.8s7.8-3.5,7.8-7.8S296.4-23.8,292.1-23.8z"
		/>
	<path id="XMLID_46_" class="st3" d="M305-15.8c0,7.1-5.8,12.9-12.9,12.9s-12.9-5.8-12.9-12.9s5.8-12.9,12.9-12.9S305-23,305-15.8z
		 M292-27.1c-6.2,0-11.3,5.1-11.3,11.3S285.8-4.5,292-4.5c6.2,0,11.3-5.1,11.3-11.3S298.2-27.1,292-27.1z"/>
	<path id="XMLID_36_" class="st4" d="M309-15.8c0,9.4-7.6,17-17,17s-17-7.6-17-17s7.6-17,17-17C301.4-32.9,309-25.3,309-15.8z
		 M292-30.7c-8.2,0-14.9,6.7-14.9,14.9S283.8-0.9,292-0.9c8.2,0,14.9-6.7,14.9-14.9S300.2-30.7,292-30.7z"/>
	<text id="XMLID_3_" transform="matrix(1 0 0 1 133.8376 16.9447)" class="st0 st5 st6">途乐</text>
	<g id="XMLID_2_">
		<text id="XMLID_47_" transform="matrix(1 0 0 1 136.5617 38.5043)" class="st0 st7 st8">www.2Le.com</text>
	</g>
	<path id="XMLID_1_" class="st0" d="M292-21.1c-2.9,0-5.3,2.4-5.3,5.3c0,1.5,0.7,2.9,1.7,3.9l-7.6,13.6l-0.4,0.6
		c-0.5-0.1-1-0.2-1.6-0.2c-1.1,0-2.1,0.3-3,0.7l-13.9-14c2.1-1.5,3.4-3.9,3.4-6.7c0-4.6-3.7-8.3-8.3-8.3c-4.6,0-8.3,3.7-8.3,8.3
		c0,3.7,2.5,6.9,5.9,7.9L253,10.2c-2.6,0.4-4.5,2.7-4.5,5.4c0,3,2.4,5.4,5.4,5.4c3,0,5.4-2.4,5.4-5.4c0-2.5-1.7-4.6-4-5.2l1.5-19.9
		c0.9,0,1.8-0.2,2.6-0.4l14.2,14.4c-0.9,1.1-1.5,2.5-1.5,4c0,3.5,2.8,6.3,6.3,6.3s6.3-2.8,6.3-6.3c0-2.1-1-3.9-2.5-5l7.9-14
		c0.5,0.1,1,0.2,1.5,0.2c2.9,0,5.3-2.4,5.3-5.3C297.3-18.8,294.9-21.1,292-21.1z"/>
</g>
</svg>
