<?xml version="1.0" encoding="utf-8"?>
<!-- Generator: Adobe Illustrator 19.0.0, SVG Export Plug-In . SVG Version: 6.00 Build 0)  -->
<svg version="1.1" id="图层_1" xmlns="http://www.w3.org/2000/svg" xmlns:xlink="http://www.w3.org/1999/xlink" x="0px" y="0px"
	 viewBox="-15 19.7 68.8 62.3" style="enable-background:new -15 19.7 68.8 62.3;" xml:space="preserve">
<style type="text/css">
	.st0{opacity:0.12;}
	.st1{fill:#42AD71;}
	.st2{fill:#2CA65C;}
	.st3{opacity:0.34;}
</style>
<g id="XMLID_10_" class="st0">
	<path id="XMLID_8_" class="st1" d="M49.5,20.9v29.5c-0.9,1.1-2,2.3-3.3,3.4V24.1H-6.6V54c-1.3-1.2-2.5-2.3-3.4-3.5V20.9H49.5z"/>
	<g id="XMLID_11_">
		<path id="XMLID_7_" class="st1" d="M9,31c4.6,0,8.3,3.7,8.3,8.3s-3.7,8.3-8.3,8.3s-8.3-3.7-8.3-8.3S4.4,31,9,31L9,31z"/>
		<path id="XMLID_6_" class="st1" d="M30.2,30.8c4.6,0,8.3,3.7,8.3,8.3s-3.7,8.3-8.3,8.3s-8.3-3.7-8.3-8.3
			C21.9,34.6,25.6,30.8,30.2,30.8L30.2,30.8z"/>
		<path id="XMLID_5_" class="st1" d="M49.5,50.4c-0.9,1.1-2,2.3-3.3,3.4c-1.5,1.3-3.3,2.5-5.4,3.6c0,0,3,11.9-1,18.1
			c-4.1,6.4-17.6,9.5-17.7-2.3c0-2.4,0-4.8,0-7.1c0-1.2,0-2.4,0-3.6c0-0.2,0-0.4,0-0.6c0-0.7,0-1.5,0-2.2c0-1.1,0-2.2,0-3.3
			c0-0.3,0-0.5,0-0.8c0-2.4,0.3-4.3,3-4.3c0.7,0,1.5,0.1,2.2,0.2c2.8,0.1,11.4,0,16.8-3.9c0.8-0.6,1.5-1.1,2.1-1.6
			c1.5-1.2,2.5-2.1,3.3-2.7c1.5-1.2,1.8-1.4,2.9-0.8C53.4,43,52.6,46.6,49.5,50.4z"/>
		<path id="XMLID_4_" class="st2" d="M22,66c0-2.1,0-4.3,0-6.4c5.7-0.6,10.7-4.7,10.7-4.7C32.3,62.1,24.7,65.1,22,66L22,66z"/>
		<path id="XMLID_3_" class="st1" d="M33.3,54.5c-0.2,0.8-0.4,1.5-0.9,2.2c-1.4,2.3-4,3.9-7.1,4.7c-1.2,0.3-2.3,0.4-3.4,0.3l0,0
			c-2.6-0.1-4.6-1-4.6-1S17,69.4,17,72.9c-0.1,11.9-13.6,8.8-17.7,2.3c-4-6.2-0.9-18-0.9-18c-2-1-3.7-2.1-5.1-3.3
			c-1.2-1.1-2.4-2.2-3.3-3.4c-3.3-3.9-4.2-7.7-3.1-8.3c1.1-0.7,1.4-0.4,3.1,1c0.8,0.7,1.9,1.6,3.4,2.8c0.5,0.4,1.1,0.8,1.7,1.3
			c5.3,3.8,13.4,4.1,16.5,4.1c0.7,0,1.3-0.1,2.1-0.2c2.4-0.3,3.2,1.5,4.8,2.9c0.8,0.7,2,1.5,3.5,2.2h0.1c3.7,1.6,7.8-1.6,8.5-2.6
			S34,51.1,33.3,54.5z"/>
	</g>
</g>
<g id="XMLID_2_" class="st3">
	<path id="XMLID_37_" class="st1" d="M0.9,49.7l6.8-4.5c0.9-0.6,1.7-0.9,2.3-0.9s1,0.3,1.4,0.8c0.3,0.5,0.7,1.3,1,2.3s0.4,1.6,0,1.8
		c-0.1,0-0.2,0.1-0.3,0.1c-0.1,0-0.2,0-0.4,0c-0.1,0-0.2-0.1-0.3-0.3c-0.1-0.2-0.1-0.4-0.2-0.7c-0.1-0.8-0.3-1.4-0.4-1.8
		c-0.2-0.4-0.3-0.7-0.6-0.8c-0.2-0.1-0.5-0.1-0.8,0S8.7,46,8.3,46.2L-7.4,56.6c-0.6,0.4-0.7,1-0.2,1.8l1.4,2.1
		c0.2,0.3,0.2,0.6-0.1,0.8c-0.4,0.2-0.6,0.2-0.8-0.1l-1.4-2.1c-1-1.5-0.8-2.6,0.5-3.5l8-5.3c-0.3-0.2-0.6-0.4-0.9-0.6
		c-0.3-0.2-0.6-0.4-0.8-0.5C-1.8,49.1-1.9,49-2,48.9s-0.1-0.3,0-0.4s0.2-0.2,0.3-0.3s0.2-0.2,0.4-0.1c0.2,0,0.5,0.2,0.8,0.4
		C-0.2,48.7,0.3,49.1,0.9,49.7z M10.1,50.2c0.3-0.2,0.6-0.1,0.8,0.2c0.2,0.3,0.2,0.6-0.1,0.8l-14,9.3c-0.3,0.2-0.6,0.2-0.8-0.2
		c-0.2-0.3-0.2-0.6,0.2-0.8L10.1,50.2z M3.2,63.1l-6.4,4.2c-0.3,0.2-0.5,0.1-0.7-0.2c-0.2-0.3-0.2-0.6,0.1-0.8l20.4-13.6
		c0.3-0.2,0.6-0.1,0.8,0.2s0.2,0.6-0.1,0.8l-7,4.6l3.7,5.6c0.6,0.9,1.1,1.5,1.5,1.7c0.2,0.1,0.5,0.1,0.7,0.1c0.3,0,0.6-0.1,0.9-0.2
		c0.3-0.1,0.7-0.3,1-0.5c0.4-0.2,0.7-0.4,1.1-0.7c0.7-0.5,1.3-0.9,1.6-1.3c0.3-0.4,0.5-0.8,0.6-1.1c0-0.2,0-0.4,0-0.5
		c0-0.2-0.1-0.4-0.2-0.6c-0.1-0.2-0.2-0.5-0.4-0.8s-0.4-0.6-0.7-1.1s-0.3-0.8,0-1c0.4-0.3,0.8-0.1,1.1,0.5c0.6,1,1.1,1.8,1.3,2.4
		c0.2,0.7,0.2,1.3,0,1.8s-0.4,1-0.9,1.3c-0.4,0.4-1,0.8-1.8,1.4c-1.6,1-2.7,1.6-3.4,1.7c-0.7,0.2-1.2,0-1.7-0.4
		c-0.5-0.4-1-1.1-1.7-2.2l-3.7-5.5l-5.1,3.4c1.5,2.6,2.3,4.8,2.4,6.6S6.2,72.4,5.2,74s-1.7,2.5-2.1,2.8c-0.4,0.3-0.7,0.2-0.9-0.1
		C2,76.4,2.1,76,2.5,75.5c1.8-2.2,2.7-4.2,2.8-6.1C5.4,67.6,4.7,65.5,3.2,63.1z"/>
	<path id="XMLID_41_" class="st1" d="M26.7,34.8l8.4-5.6c0.3-0.2,0.6-0.2,0.8,0.2c0.2,0.4,0.2,0.6-0.2,0.8l-8.2,5.5
		c2.7,3,5.9,5.8,9.8,8.4c0.1-1.5,0-3-0.3-4.5s-1-3.2-2-5.3c-0.2-0.5-0.2-0.8,0-1c0.4-0.3,0.7-0.2,0.9,0.1c0.2,0.3,0.6,1.1,1.1,2.4
		c0.5,1.3,0.9,2.7,1.2,4.1s0.3,3,0.2,4.8c1.7,1,3.2,1.6,4.7,2s2.3,0.5,2.6,0.3c0.1-0.1,0.2-0.3,0.1-0.6c-0.1-0.3-0.3-0.9-0.7-1.8
		c-0.4-0.9-0.9-1.9-1.5-3c-0.1-0.2-0.1-0.4-0.1-0.5c0.1-0.2,0.2-0.3,0.3-0.4s0.3-0.1,0.4-0.1c0.2,0,0.3,0.1,0.4,0.2
		c0.1,0.2,0.3,0.5,0.5,0.8c0.2,0.3,0.4,0.8,0.6,1.2c0.2,0.5,0.4,0.9,0.6,1.4c0.2,0.4,0.4,0.9,0.5,1.3c0.3,0.9,0.5,1.4,0.5,1.6
		c0,0.4-0.2,0.6-0.5,0.9c-0.4,0.3-1,0.4-1.6,0.3c-0.7,0-1.7-0.3-3-0.7s-2.6-1-3.8-1.6c-0.3,2.5-1.1,4.8-2.2,6.9
		c-1.1,2-1.9,3.2-2.4,3.5c-0.2,0.1-0.3,0.1-0.5,0.1c-0.2-0.1-0.3-0.2-0.3-0.3c-0.2-0.3-0.1-0.6,0.2-1.1c2.3-3,3.7-6.2,4-9.7
		c-1.7-1-3.4-2.3-5.2-3.8s-3.6-3.3-5.6-5.3l-8.3,5.5c-0.2,0.2-0.4,0.3-0.4,0.5s0,0.4,0.2,0.6l1.9,2.9l5.8-3.8
		c0.3-0.2,0.6-0.3,0.8-0.4c0.2-0.1,0.4-0.1,0.5-0.1c0.2,0,0.3,0.1,0.5,0.3c0.1,0.2,0.3,0.4,0.5,0.6c2.6,4,4.1,6.7,4.5,8.3
		c0.3,1.6-0.1,2.8-1.2,3.5c-0.5,0.3-1.3,0.6-2.2,0.9c-0.5,0.1-0.9,0.2-1.2,0.2s-0.5,0.1-0.7,0.1s-0.3,0-0.4-0.1
		c-0.1,0-0.2-0.1-0.2-0.2c-0.2-0.3-0.2-0.5,0-0.7s0.4-0.3,0.7-0.4c1.1-0.1,2-0.3,2.6-0.6c0.6-0.2,1.1-0.6,1.2-1.1s0.1-1.1-0.1-1.9
		c-0.3-0.8-0.8-1.9-1.5-3.2c-0.5-0.9-0.9-1.6-1.2-2.2c-0.3-0.6-0.6-1-0.8-1.2c-0.4-0.5-0.6-0.8-0.9-0.9c-0.2-0.1-0.5,0-0.9,0.3
		l-5.2,3.5l1.8,2.8c0.5,0.8,1,1.6,1.4,2.3c0.4,0.8,0.8,1.5,1.1,2.2c0.7,1.5,1.2,2.8,1.5,4.1c0.3,1.2,0.5,2,0.5,2.3s0,0.5-0.2,0.6
		c-0.1,0.1-0.3,0.1-0.5,0.1s-0.3-0.1-0.4-0.2s-0.2-0.4-0.3-0.8c-0.2-1-0.4-1.9-0.7-2.7s-0.6-1.7-0.9-2.5c-0.3-0.8-0.7-1.6-1.2-2.4
		c-0.5-0.8-1-1.7-1.5-2.5l-4-6.3c-0.4-0.6-0.6-1.1-0.5-1.6s0.4-0.9,1-1.2l8.1-5.4c-0.3-0.3-0.6-0.6-0.9-0.9c-0.3-0.3-0.6-0.6-0.9-1
		c-0.6-0.7-0.9-1-1-1.1c-0.2-0.3-0.1-0.6,0.2-0.8c0.4-0.2,0.7-0.2,0.9,0.1L26.7,34.8z M32.1,29.5c0.1,0.1,0.1,0.3,0.1,0.4
		c0,0.2-0.1,0.3-0.3,0.4c-0.2,0.1-0.5,0.2-0.8,0.2c-0.2,0-0.4,0-0.7,0.1c-0.3,0-0.7,0.1-1.1,0.1c-0.4,0.1-0.8,0.1-1.1,0.2
		C27.9,31,27.6,31,27.4,31c-0.3,0.1-0.5,0.1-0.7,0c-0.1-0.1-0.2-0.2-0.3-0.3c0-0.1,0-0.3,0-0.4c0.1-0.1,0.1-0.2,0.2-0.3
		c0.2-0.1,0.9-0.3,2.3-0.4c1.3-0.2,2.2-0.2,2.5-0.2C31.8,29.2,32,29.3,32.1,29.5z"/>
</g>
</svg>
